<?xml version="1.0" encoding="iso-8859-1"?>
<!-- Enhanced SVG for a website loader with animated waves -->
<svg height="800px" width="800px" version="1.1" id="Layer_1" xmlns="http://www.w3.org/2000/svg" xmlns:xlink="http://www.w3.org/1999/xlink" viewBox="0 0 512 512" xml:space="preserve">
  <!-- Define gradients -->
  <defs>
    <!-- Wave gradient -->
    <linearGradient id="waveGradient" x1="0%" y1="0%" x2="0%" y2="100%">
      <stop offset="0%" style="stop-color: #1E90FF; stop-opacity: 1"/>
      <stop offset="100%" style="stop-color: #000080; stop-opacity: 1"/>
    </linearGradient>

    <!-- Define the waves -->
    <path id="wave" d="M0,430 Q50,390 100,430 T200,430 T300,430 T400,430 T500,430 T600,430 T700,430 T800,430 V512 H0 Z" fill="url(#waveGradient)"/>
  </defs>

  <!-- Original Boat SVG Content -->
  <path style="fill:#B8DDFF;" d="M256.002,24.451v207.742h82.627v-50.949C338.629,116.15,305.9,58.7,256.002,24.451z"/>
  <g>
    <path style="fill:#5BACF5;" d="M255.997,0c-4.512,0-8.17,3.657-8.17,8.17v267.597h16.34V8.17C264.167,3.657,260.509,0,255.997,0z"/>
    <path style="fill:#5BACF5;" d="M360.416,240.363H151.589c-4.512,0-8.17-3.657-8.17-8.17c0-4.513,3.658-8.17,8.17-8.17h208.827
      c4.513,0,8.17,3.657,8.17,8.17C368.587,236.706,364.929,240.363,360.416,240.363z"/>
  </g>
  <path style="fill:#4C7FE1;" d="M372.093,285.694c-3.532-11.45-16.226-20.82-28.209-20.82H168.109
    c-11.983,0-24.677,9.368-28.208,20.82l-15.458,50.118h263.108L372.093,285.694z"/>
  <polygon style="fill:#5BACF5;" points="195.889,324.92 134.817,452.311 377.176,452.311 316.104,324.92 "/>
  <path style="fill:#3D51CC;" d="M326.302,357.987c-7.129,1.94-40.291,10.506-70.305,10.506s-63.178-8.566-70.305-10.506
    l-50.874,94.323h242.359L326.302,357.987z"/>
  <g>
    <polygon style="fill:#B8DDFF;" points="90.765,324.92 90.765,452.311 156.604,452.311 195.889,324.92  "/>
    <polygon style="fill:#B8DDFF;" points="421.229,324.92 316.104,324.92 355.389,452.311 421.229,452.311  "/>
  </g>
  <path style="fill:#5BACF5;" d="M503.827,430.523c-16.955,0-31.964-8.278-41.316-20.934c-9.316,12.656-24.361,20.934-41.28,20.934
    c-16.955,0-31.965-8.278-41.316-20.934c-9.352,12.656-24.362,20.934-41.316,20.934c-16.959,0-31.925-8.278-41.28-20.934
    c-9.352,12.656-24.362,20.934-41.316,20.934c-16.959,0-31.965-8.278-41.281-20.934c-9.391,12.656-24.361,20.934-41.316,20.934
    c-16.958,0-31.964-8.278-41.28-20.934c-9.352,12.656-24.402,20.934-41.357,20.934c-16.919,0-31.924-8.278-41.28-20.934
    c-9.352,12.656-24.357,20.934-41.316,20.934v49.021l247.827,16.115l247.83-16.115V430.523z"/>
  <path style="fill:#4C7FE1;" d="M462.51,458.61c-9.316,12.656-24.361,20.934-41.28,20.934c-16.955,0-31.965-8.278-41.316-20.934
    c-9.352,12.656-24.362,20.934-41.316,20.934c-16.959,0-31.925-8.278-41.28-20.934c-9.353,12.656-24.362,20.934-41.316,20.934
    c-16.959,0-31.965-8.278-41.281-20.934c-9.391,12.656-24.361,20.934-41.316,20.934c-16.958,0-31.964-8.278-41.28-20.934
    c-9.352,12.656-24.402,20.934-41.357,20.934c-16.919,0-31.924-8.278-41.28-20.934c-9.352,12.656-24.357,20.934-41.316,20.934V512
    h495.66v-32.455C486.872,479.545,471.862,471.267,462.51,458.61z"/>

  <!-- Animation for the boat -->
  <g>
    <!-- Animate the boat floating -->
    <animateTransform attributeName="transform" attributeType="XML" type="translate" values="0 0; 0 -10; 0 0; 0 10; 0 0" dur="4s" repeatCount="indefinite"/>
    <!-- Animate the boat swaying -->
    <animateTransform attributeName="transform" attributeType="XML" type="rotate" values="0 256 256; 2 256 256; 0 256 256; -2 256 256; 0 256 256" dur="4s" repeatCount="indefinite" additive="sum"/>
  </g>

  <!-- Flag of India -->
  <g transform="translate(220, 60)">
    <rect width="50" height="30" fill="#FF9933"/>
    <rect y="10" width="50" height="10" fill="#FFFFFF"/>
    <rect y="20" width="50" height="10" fill="#138808"/>
    <circle cx="25" cy="15" r="5" fill="#000080"/>
  </g>

  <!-- Animate the flag -->
  <g transform="translate(220, 60)">
    <animateTransform attributeName="transform" type="translate" values="0 0; 0 -5; 0 0; 0 5; 0 0" dur="2s" repeatCount="indefinite"/>
  </g>

  <!-- Animate the waves -->
  <g>
    <use xlink:href="#wave" x="0" y="0">
      <animate attributeName="x" from="0" to="-800" dur="10s" repeatCount="indefinite"/>
    </use>
    <use xlink:href="#wave" x="-800" y="0">
      <animate attributeName="x" from="-800" to="0" dur="10s" repeatCount="indefinite"/>
    </use>
  </g>
</svg>
